<svg xmlns="http://www.w3.org/2000/svg" height="1024" preserveAspectRatio="none" style="display: block;" version="1.1" viewBox="0 0 2048 2048" width="1024">
<path d="M 0 0 L 2048 0 L 2048 2048 L 0 2048 L 0 0 z" fill="rgb(7,9,11)" transform="translate(0,0)"></path>
<path d="M 1017.65 972.836 C 1046.82 969.123 1073.51 989.69 1077.35 1018.85 C 1081.2 1048 1060.75 1074.78 1031.61 1078.75 C 1002.29 1082.75 975.302 1062.15 971.435 1032.81 C 967.569 1003.46 988.293 976.573 1017.65 972.836 z" fill="rgb(27,34,42)" transform="translate(0,0)"></path>
<path d="M 1020.58 997.823 C 1030.68 996.652 1040.61 1001.05 1046.53 1009.31 C 1052.45 1017.57 1053.42 1028.39 1049.06 1037.57 C 1044.7 1046.75 1035.71 1052.85 1025.56 1053.49 C 1010.44 1054.44 997.317 1043.17 995.967 1028.08 C 994.617 1012.99 1005.53 999.571 1020.58 997.823 z" fill="rgb(7,9,11)" transform="translate(0,0)"></path>
<path d="M 1259.54 1028.36 C 1256.06 1093.25 1232.83 1148.99 1183.96 1193.49 C 1138.07 1235.29 1072.51 1261.47 1009.88 1257.83 C 948.284 1253.68 890.81 1225.41 849.929 1179.15 C 808.064 1131.66 786.864 1069.44 791.027 1006.27 C 799.419 889.563 891.332 798.928 1007.14 788.353 L 1008.94 789.215 C 1009.78 792.364 1009.49 792.85 1009.09 796.047 C 1005.3 797.884 989.369 799.61 984.034 800.782 C 974.33 802.913 964.375 804.88 954.857 808.043 C 888.183 830.369 835.467 882.094 811.881 948.332 C 792.683 1003.34 796.022 1067.83 821.471 1120.29 C 848.001 1175.46 895.464 1217.74 953.314 1237.75 C 1009.99 1257.49 1072.23 1253.57 1125.98 1226.88 C 1182.2 1199.61 1224.93 1150.66 1244.36 1091.26 C 1250.83 1071.46 1254.26 1050.79 1254.55 1029.96 L 1259.54 1028.36 z" fill="rgb(182,242,58)" transform="translate(0,0)"></path>
<path d="M 1254.55 1029.96 C 1253.02 979.508 1243.12 938.799 1214.32 896.425 C 1177.03 841.54 1115.83 806.522 1050.52 797.655 C 1047.77 797.281 1046.29 796.468 1044.88 794.288 C 1045.77 792.984 1046.69 791.858 1048.64 792.11 C 1172.85 808.208 1257.25 904.451 1259.54 1028.36 L 1254.55 1029.96 z" fill="rgb(91,140,255)" transform="translate(0,0)"></path>
<metadata><recraft-signature>{"signed_by": "recraft", "signature_b64": "VRpZu4ulMURIMatF++04jgUZcuE/JoarAsJW+cwYw9ha3T+5m9wfAFmCajJtPjacsdAYOryMw2YwTXEvuH4GDQ==", "signing_algo": "Ed25519", "generation_timestamp": 1784077831, "identifier": "8ff579f4-0edd-4098-8e9f-ced4261db50d"}</recraft-signature></metadata></svg>